<svg xmlns="http://www.w3.org/2000/svg" width="640" height="400" data-background-color="#ffffff"><path id="background" fill="#ffffff" d="M0 0h640v400H0z" data-fill-palette-color="background" opacity="1"/><g id="tight-bounds" transform="translate(122.24 76.4)"><svg width="395.52" height="247.2" viewBox="0 0 395.52 247.2"><g><svg/></g><g><svg width="395.52" height="247.2" viewBox="0 0 395.52 247.2"><g transform="translate(75.544 80.514)"><svg width="244.43135999999998" height="86.17104884069771" viewBox="0 0 244.43135999999998 86.17104884069771"><g><svg width="244.43135999999998" height="86.17104884069771" viewBox="0 0 244.43135999999998 86.17104884069771"><g><svg width="244.43135999999998" height="86.17104884069771" viewBox="0 0 244.43136 86.17104884069772"><g><svg width="244.43136" height="86.17104884069772" viewBox="0 0 244.43136 86.17104884069772"><g><svg width="244.43136" height="86.17104884069772" viewBox="0 0 244.43136 86.17104884069772"><g><svg width="244.43136" height="47.70877873754153" viewBox="0 0 244.43136 47.70877873754153"><g><svg width="244.43136" height="47.70877873754153" data-palette-color="#471aa0" viewBox="2.200000047683716 -36 240.77999877929688 47"><path id="text-0" fill="#471aa0" d="M14.85.6Q11 .6 8.15-.8t-4.4-3.9Q2.2-7.2 2.2-10.5h4.4q0 2.05.95 3.77Q8.5-5 10.33-3.98q1.82 1.03 4.52 1.03 3.55 0 5.5-1.7 1.95-1.7 1.95-4.25 0-2.1-.9-3.38-.9-1.27-2.42-2.07-1.53-.8-3.5-1.4-1.98-.6-4.13-1.35-4.05-1.4-6-3.48Q3.4-22.65 3.4-26q-.05-2.8 1.3-4.98 1.35-2.17 3.83-3.4Q11-35.6 14.4-35.6q3.35 0 5.83 1.25 2.47 1.25 3.85 3.45 1.37 2.2 1.42 5h-4.4q0-1.45-.75-2.88-.75-1.42-2.28-2.32-1.52-.9-3.82-.9-2.85-.05-4.67 1.45-1.83 1.5-1.83 4.15 0 2.25 1.28 3.45 1.27 1.2 3.57 1.97 2.3.78 5.3 1.78 2.5.9 4.5 2.1 2 1.2 3.13 3.1 1.12 1.9 1.12 4.85 0 2.5-1.3 4.73-1.3 2.22-3.92 3.62Q18.8.6 14.85.6ZM34.9-30.3q-1.25 0-2.08-.83-.82-.82-.82-2.07 0-1.2.82-2 .83-.8 2.08-.8 1.2 0 2.05.8.85.8.85 2 0 1.25-.85 2.07-.85.83-2.05.83ZM37 0h-4.2v-24.8H37V0Zm11.5 0h-4.2v-24.8h3.8l.3 3.6q1.2-2 3.2-3.1t4.5-1.1q2.95 0 5.07 1.2 2.13 1.2 3.28 3.65 1.3-2.25 3.57-3.55 2.28-1.3 4.93-1.3 4.45 0 7.1 2.67 2.65 2.68 2.65 8.23V0h-4.15v-14.05q0-3.85-1.55-5.8-1.55-1.95-4.45-1.95-3 0-4.98 2.32-1.98 2.33-1.98 6.63V0H61.4v-14.05q0-3.85-1.55-5.8-1.55-1.95-4.45-1.95-2.95 0-4.93 2.32-1.97 2.33-1.97 6.63V0Zm44.74 11h-4.2v-35.8h3.8l.4 4.1q1.2-1.8 3.43-3.25 2.22-1.45 5.67-1.45 3.7 0 6.45 1.7t4.28 4.65q1.52 2.95 1.52 6.7t-1.52 6.67q-1.53 2.93-4.3 4.61Q105.99.6 102.29.6q-3.05 0-5.42-1.25-2.38-1.25-3.63-3.5V11Zm8.6-14.05q2.5 0 4.4-1.18 1.9-1.17 3-3.27t1.1-4.9q0-2.8-1.1-4.9-1.1-2.1-3-3.28-1.9-1.17-4.4-1.17-2.5 0-4.4 1.17-1.9 1.18-3 3.28-1.1 2.1-1.1 4.9 0 2.8 1.1 4.9 1.1 2.1 3 3.27 1.9 1.18 4.4 1.18ZM124.64 0h-4.2v-36h4.2V0Zm14 11h-4.4l6.15-13.4h-1.45l-9.85-22.4h4.55l8.2 19.3 8.7-19.3h4.35L138.64 11Zm31.7-11h-10.75v-35h10.75q9.25 0 13.62 4.7 4.38 4.7 4.38 12.9 0 8.05-4.38 12.73Q179.59 0 170.34 0Zm-6.55-31.5v28h6.45q5.1 0 8.12-1.68 3.03-1.67 4.33-4.8 1.3-3.12 1.3-7.42 0-4.4-1.3-7.55-1.3-3.15-4.33-4.85-3.02-1.7-8.12-1.7h-6.45ZM205.28.6q-3.55 0-6.3-1.63-2.75-1.62-4.32-4.52-1.58-2.9-1.58-6.85 0-3.9 1.55-6.83 1.55-2.92 4.33-4.55 2.77-1.62 6.42-1.62 3.6 0 6.23 1.62 2.62 1.63 4.02 4.28 1.4 2.65 1.4 5.7 0 .55-.02 1.1-.03.55-.03 1.25h-19.75q.15 2.85 1.33 4.72 1.17 1.88 2.95 2.83 1.77.95 3.77.95 2.6 0 4.35-1.2 1.75-1.2 2.55-3.25h4.15q-1 3.45-3.82 5.72Q209.68.6 205.28.6Zm0-22.45q-3 0-5.32 1.82-2.33 1.83-2.68 5.33h15.6q-.15-3.35-2.3-5.25t-5.3-1.9ZM233.58 0h-4.85l-9.4-24.8h4.4l7.45 20.75 7.5-20.75h4.3L233.58 0Z" class="undefined-text-0" data-fill-palette-color="primary" opacity="1"/></svg></g></svg></g><g transform="translate(0 58.972)"><svg width="244.43136" height="27.199372453912332" viewBox="0 0 244.43136 27.199372453912332"><g><svg width="244.43136" height="27.199372453912332" data-palette-color="#471aa0" viewBox="0.8300000429153442 -41.939998626708984 476.7200012207031 53.04999923706055"><path id="text-1" fill="#471aa0" d="M10.89 0 .83-37.35h4.49l7.23 28.22 1.27 5.96 1.41-5.96 7.52-28.22h4.86l8.96 34.37 1.3-6.25 6.88-28.12h4.4L39.58 0h-6.21l-7.15-26.71-1.1-6.3-1.15 6.3L16.6 0h-5.71ZM76.9-5.03l1.2 3.49Q73.04.49 66.94.49q-3.54 0-6-.73Q57-1.37 55.71-4.88q-1.2-3.3-1.2-9.77v-1.24q0-7.74 3.23-10.87 2.9-2.78 9.69-2.78 6.62 0 9.03 3.27 1.17 1.59 1.55 3.85.38 2.25.38 4.3 0 3.2-.15 4.96-3.44.15-6.17.15h-3.93q-6.16 0-9.48-.54 0 5.62 1.42 7.84Q61.81-3 66.99-3t9.91-2.03ZM58.66-16.41h15.61v-2.34q0-3.83-1.49-5.47-1.66-1.83-5.74-1.83-4.88 0-6.67 2.12-1.71 2.03-1.71 7.52Zm33.79 13.7L91.94 0H88.5v-41.55l4.05-.39v15.67q5.05-3.27 9.76-3.27 6.55 0 8.31 4.03 1.09 2.54 1.24 7.13.05 2.22.05 4.88v1.95q0 3.35-.43 5.03-.43 1.69-1.08 2.89-.66 1.21-1.81 2.12-2.49 2-7.13 2t-9.01-3.2Zm.1-20.34v17.14q5.17 2.81 8.71 2.81h.3q4.17 0 5.37-2.32.63-1.17.78-3.05.15-1.88.15-4.52v-3.51q0-5.45-1.25-7.33-1.22-1.88-4.64-1.88h-.61q-3.05 0-7.08 1.81-1.05.46-1.73.85ZM153.87.1l-.58-3.35Q148.13.49 142.81.49q-5.88 0-7.83-4.32-1.13-2.44-1.26-5.17-.14-2.72-.14-4.78t.04-4.16q.04-2.1.31-3.89.26-1.78.84-3.21.57-1.42 1.65-2.43 2.22-2.07 7.33-2.07 5.12 0 9.24 1.78v-13.79l4.06-.39v28.59q0 8.42.46 13.15l-3.64.3Zm-.9-13.65.02-10.86q-4.39-1.47-8.49-1.47-2.98 0-3.93.49-.96.49-1.46 1.27t-.81 2.15q-.57 2.56-.57 8.44v.54q0 5.49 1.2 7.59 1.29 2.23 4.81 2.23h.37q3.37 0 7.17-2.15 1.05-.59 1.81-1.17v-.05q-.12-2.27-.12-7.01Zm36.3 8.52 1.2 3.49Q185.41.49 179.31.49q-3.54 0-6.01-.73-3.93-1.13-5.22-4.64-1.2-3.3-1.2-9.77v-1.24q0-7.74 3.22-10.87 2.91-2.78 9.7-2.78 6.61 0 9.03 3.27 1.17 1.59 1.55 3.85.38 2.25.38 4.3 0 3.2-.15 4.96-3.44.15-6.17.15h-3.93q-6.16 0-9.48-.54 0 5.62 1.42 7.84Q174.18-3 179.36-3q5.17 0 9.91-2.03Zm-18.24-11.38h15.6v-2.34q0-3.83-1.49-5.47-1.66-1.83-5.73-1.83-4.89 0-6.67 2.12-1.71 2.03-1.71 7.52ZM207.53 0l-9.96-29.05h4.37l7.62 23.7.73 2.42.68-2.42 7.28-23.7h4.42L212.85 0h-5.32Zm44.16-5.03 1.2 3.49Q247.83.49 241.73.49q-3.54 0-6.01-.73-3.93-1.13-5.22-4.64-1.2-3.3-1.2-9.77v-1.24q0-7.74 3.23-10.87 2.9-2.78 9.69-2.78 6.62 0 9.03 3.27 1.17 1.59 1.55 3.85.38 2.25.38 4.3 0 3.2-.15 4.96-3.44.15-6.17.15h-3.93q-6.16 0-9.48-.54 0 5.62 1.42 7.84Q236.6-3 241.78-3t9.91-2.03Zm-18.24-11.38h15.6v-2.34q0-3.83-1.48-5.47-1.66-1.83-5.74-1.83-4.88 0-6.67 2.12-1.71 2.03-1.71 7.52ZM264.36 0l-.05-41.5 4.03-.35V0h-3.98Zm14.89-14.45q0-5.55.56-7.74.56-2.2 1.38-3.48.82-1.28 2.21-2.14 2.78-1.73 8.23-1.73 7.86 0 10.11 3.88 1.34 2.34 1.53 6.62.08 2.02.08 4.46 0 2.45-.16 4.56-.16 2.11-.62 3.79-.47 1.69-1.3 2.95-.83 1.25-2.2 2.11-2.68 1.66-7.83 1.66-7.72 0-10.13-3.81-1.49-2.37-1.74-6.64-.12-2.05-.12-4.49Zm6.64 10.18q.88.66 2.21.99 1.33.33 3.64.33 2.3 0 3.88-.66 1.57-.66 2.37-2.12.79-1.45 1-3.77.21-2.32.21-5.39 0-3.08-.19-5.13-.18-2.05-.91-3.39-1.47-2.64-6.52-2.64-5.35 0-6.96 2.64-.8 1.34-1.02 3.41-.22 2.08-.22 4.52 0 2.44.06 4.14.06 1.7.31 3.05.26 1.36.76 2.36.5 1 1.38 1.66Zm31.39 2.54v12.84h-4.05v-40.16h3.3l.46 3q2.86-2.15 7.45-3.15 1.66-.34 3.61-.34t3.46.51q1.5.51 2.47 1.43.98.92 1.52 2.18.53 1.27.8 2.76.34 2.05.34 6.55v.56q0 5.71-.39 7.91t-1.02 3.62q-.64 1.43-1.76 2.43-2.32 2.08-7.18 2.08-4.86 0-9.01-2.22Zm0-21.19v17.84q4.15 1.91 8.72 1.91 2.98 0 4.35-1.1 1.85-1.52 2.07-7.06.07-1.83.07-4.2v-.53q0-5.62-.97-7.52-1.1-2.18-4.54-2.18h-.37q-3.59 0-7.45 1.79-1.12.51-1.88 1.05Zm42.19-2.81q-3.98 0-8.69 2.81V0h-4.05v-29.05h3.56l.39 3q4.27-3.49 9.57-3.49 3.03 0 4.77.87 1.75.86 2.53 2.84 5.4-3.71 10.25-3.71 4.59 0 6.38 2.1 1.71 2.02 1.71 7.2V0h-4.11v-19.48q0-3.52-.68-4.53-.68-1.01-1.62-1.37-.94-.35-2.2-.35-1.26 0-2.37.23t-2.26.62q-2.32.81-4.44 2.05.12 1.47.12 2.59V0h-4.1v-19.48q0-3.52-.68-4.53-.69-1.01-1.63-1.37-.94-.35-2.45-.35Zm58.74 20.7 1.19 3.49Q414.35.49 408.25.49q-3.54 0-6.01-.73-3.93-1.13-5.22-4.64-1.2-3.3-1.2-9.77v-1.24q0-7.74 3.22-10.87 2.91-2.78 9.69-2.78 6.62 0 9.04 3.27 1.17 1.59 1.55 3.85.38 2.25.38 4.3 0 3.2-.15 4.96-3.44.15-6.18.15h-3.93q-6.15 0-9.47-.54 0 5.62 1.42 7.84Q403.12-3 408.3-3q5.17 0 9.91-2.03Zm-18.24-11.38h15.6v-2.34q0-3.83-1.49-5.47-1.66-1.83-5.74-1.83-4.88 0-6.66 2.12-1.71 2.03-1.71 7.52Zm43.72-9.32q-4.76 0-9.69 2.81V0h-4.05v-29.05h3.56l.39 3q2.66-2.17 6.62-3.1 1.61-.39 3.78-.39 2.18 0 3.84.5 1.66.5 2.63 1.6 1.79 1.98 1.79 7.2V0h-4.11v-19.48q0-3.52-.68-4.53-.68-1.01-1.62-1.37-.94-.35-2.46-.35Zm32.47 21.16 1.39 3.18Q473.57.49 470.2.49q-6.1 0-6.93-5.23-.19-1.24-.19-3.61v-17.31h-3.52v-3l3.52-.39.63-6.64h3.39v6.64h8.48v3.39h-8.48v17.24q0 3 .44 3.83.81 1.51 3.23 1.51 2.41 0 5.39-1.49Z" class="undefined-text-1" data-fill-palette-color="secondary" opacity="1"/></svg></g></svg></g></svg></g></svg></g></svg></g></svg></g></svg></g><g><path fill="#471aa0" stroke="transparent" d="M125.714 69.252a122.216 122.216 0 0 1 144.092 0h-4.302a117.913 117.913 0 0 0-135.488 0h-4.302m0 108.696a122.216 122.216 0 0 0 144.092 0h-4.302a117.913 117.913 0 0 1-135.488 0h-4.302" data-fill-palette-color="tertiary"/></g></svg></g></svg></g></svg>