<?xml version="1.0"?>
<svg width="250" height="200" xmlns="http://www.w3.org/2000/svg" xmlns:svg="http://www.w3.org/2000/svg">
 <g class="layer">
  <g id="tight-bounds">
   <svg height="247.2" id="svg_30" viewBox="0 0 395.52 247.2" width="395.52" x="-72.76" y="-23.6">
    <g id="svg_3">
     <svg id="svg_31"/>
    </g>
    <g id="svg_6">
     <svg height="247.2" id="svg_32" viewBox="0 0 395.52 247.2" width="395.52">
      <g id="svg_9" transform="translate(75.544 80.514)">
       <svg height="86.17" id="svg_33" viewBox="0 0 244.43135999999998 86.17104884069771" width="244.43">
        <g id="svg_12">
         <svg height="86.17" id="svg_34" viewBox="0 0 244.43135999999998 86.17104884069771" width="244.43">
          <g id="svg_15">
           <svg height="86.17" id="svg_35" viewBox="0 0 244.43136 86.17104884069772" width="244.43">
            <g id="svg_18">
             <svg height="86.17" id="svg_36" viewBox="0 0 244.43136 86.17104884069772" width="244.43">
              <g id="svg_21">
               <svg height="86.17" id="svg_37" viewBox="0 0 244.43136 86.17104884069772" width="244.43">
                <g id="svg_23">
                 <svg height="47.71" id="svg_38" viewBox="0 0 244.43136 47.70877873754153" width="244.43">
                  <g id="svg_25">
                   <svg data-palette-color="#471aa0" height="47.71" id="svg_39" viewBox="2.200000047683716 -36 240.77999877929688 47" width="244.43">
                    <path class="undefined-text-0" d="m14.85,0.6q-3.85,0 -6.7,-1.4t-4.4,-3.9q-1.55,-2.5 -1.55,-5.8l4.4,0q0,2.05 0.95,3.77q0.95,1.73 2.78,2.75q1.82,1.03 4.52,1.03q3.55,0 5.5,-1.7q1.95,-1.7 1.95,-4.25q0,-2.1 -0.9,-3.38q-0.9,-1.27 -2.42,-2.07q-1.53,-0.8 -3.5,-1.4q-1.98,-0.6 -4.13,-1.35q-4.05,-1.4 -6,-3.48q-1.95,-2.07 -1.95,-5.42q-0.05,-2.8 1.3,-4.98q1.35,-2.17 3.83,-3.4q2.47,-1.22 5.87,-1.22q3.35,0 5.83,1.25q2.47,1.25 3.85,3.45q1.37,2.2 1.42,5l-4.4,0q0,-1.45 -0.75,-2.88q-0.75,-1.42 -2.28,-2.32q-1.52,-0.9 -3.82,-0.9q-2.85,-0.05 -4.67,1.45q-1.83,1.5 -1.83,4.15q0,2.25 1.28,3.45q1.27,1.2 3.57,1.97q2.3,0.78 5.3,1.78q2.5,0.9 4.5,2.1q2,1.2 3.13,3.1q1.12,1.9 1.12,4.85q0,2.5 -1.3,4.73q-1.3,2.22 -3.92,3.62q-2.63,1.4 -6.58,1.4zm20.05,-30.9q-1.25,0 -2.08,-0.83q-0.82,-0.82 -0.82,-2.07q0,-1.2 0.82,-2q0.83,-0.8 2.08,-0.8q1.2,0 2.05,0.8q0.85,0.8 0.85,2q0,1.25 -0.85,2.07q-0.85,0.83 -2.05,0.83zm2.1,30.3l-4.2,0l0,-24.8l4.2,0l0,24.8zm11.5,0l-4.2,0l0,-24.8l3.8,0l0.3,3.6q1.2,-2 3.2,-3.1t4.5,-1.1q2.95,0 5.07,1.2q2.13,1.2 3.28,3.65q1.3,-2.25 3.57,-3.55q2.28,-1.3 4.93,-1.3q4.45,0 7.1,2.67q2.65,2.68 2.65,8.23l0,14.5l-4.15,0l0,-14.05q0,-3.85 -1.55,-5.8q-1.55,-1.95 -4.45,-1.95q-3,0 -4.98,2.32q-1.98,2.33 -1.98,6.63l0,12.85l-4.19,0l0,-14.05q0,-3.85 -1.55,-5.8q-1.55,-1.95 -4.45,-1.95q-2.95,0 -4.93,2.32q-1.97,2.33 -1.97,6.63l0,12.85zm44.74,11l-4.2,0l0,-35.8l3.8,0l0.4,4.1q1.2,-1.8 3.43,-3.25q2.22,-1.45 5.67,-1.45q3.7,0 6.45,1.7t4.28,4.65q1.52,2.95 1.52,6.7t-1.52,6.67q-1.53,2.93 -4.3,4.61q-2.78,1.67 -6.48,1.67q-3.05,0 -5.42,-1.25q-2.38,-1.25 -3.63,-3.5l0,15.15zm8.6,-14.05q2.5,0 4.4,-1.18q1.9,-1.17 3,-3.27t1.1,-4.9q0,-2.8 -1.1,-4.9q-1.1,-2.1 -3,-3.28q-1.9,-1.17 -4.4,-1.17q-2.5,0 -4.4,1.17q-1.9,1.18 -3,3.28q-1.1,2.1 -1.1,4.9q0,2.8 1.1,4.9q1.1,2.1 3,3.27q1.9,1.18 4.4,1.18zm22.8,3.05l-4.2,0l0,-36l4.2,0l0,36zm14,11l-4.4,0l6.15,-13.4l-1.45,0l-9.85,-22.4l4.55,0l8.2,19.3l8.7,-19.3l4.35,0l-16.25,35.8zm31.7,-11l-10.75,0l0,-35l10.75,0q9.25,0 13.62,4.7q4.38,4.7 4.38,12.9q0,8.05 -4.38,12.73q-4.37,4.67 -13.62,4.67zm-6.55,-31.5l0,28l6.45,0q5.1,0 8.12,-1.68q3.03,-1.67 4.33,-4.8q1.3,-3.12 1.3,-7.42q0,-4.4 -1.3,-7.55q-1.3,-3.15 -4.33,-4.85q-3.02,-1.7 -8.12,-1.7l-6.45,0zm41.49,32.1q-3.55,0 -6.3,-1.63q-2.75,-1.62 -4.32,-4.52q-1.58,-2.9 -1.58,-6.85q0,-3.9 1.55,-6.83q1.55,-2.92 4.33,-4.55q2.77,-1.62 6.42,-1.62q3.6,0 6.23,1.62q2.62,1.63 4.02,4.28q1.4,2.65 1.4,5.7q0,0.55 -0.02,1.1q-0.03,0.55 -0.03,1.25l-19.75,0q0.15,2.85 1.33,4.72q1.17,1.88 2.95,2.83q1.77,0.95 3.77,0.95q2.6,0 4.35,-1.2q1.75,-1.2 2.55,-3.25l4.15,0q-1,3.45 -3.82,5.72q-2.83,2.28 -7.23,2.28zm0,-22.45q-3,0 -5.32,1.82q-2.33,1.83 -2.68,5.33l15.6,0q-0.15,-3.35 -2.3,-5.25t-5.3,-1.9zm28.3,21.85l-4.85,0l-9.4,-24.8l4.4,0l7.45,20.75l7.5,-20.75l4.3,0l-9.4,24.8z" data-fill-palette-color="primary" fill="#471aa0" id="svg_24"/>
                   </svg>
                  </g>
                 </svg>
                </g>
                <g id="svg_27" transform="translate(0 58.972)">
                 <svg height="27.2" id="svg_40" viewBox="0 0 244.43136 27.199372453912332" width="244.43">
                  <g id="svg_29">
                   <svg data-palette-color="#471aa0" height="27.2" id="svg_41" viewBox="0.8300000429153442 -41.939998626708984 476.7200012207031 53.04999923706055" width="244.43">
                    <path class="undefined-text-1" d="m10.89,0l-10.06,-37.35l4.49,0l7.23,28.22l1.27,5.96l1.41,-5.96l7.52,-28.22l4.86,0l8.96,34.37l1.3,-6.25l6.88,-28.12l4.4,0l-9.57,37.35l-6.21,0l-7.15,-26.71l-1.1,-6.3l-1.15,6.3l-7.37,26.71l-5.71,0zm66.01,-5.03l1.2,3.49q-5.06,2.03 -11.16,2.03q-3.54,0 -6,-0.73q-3.94,-1.13 -5.23,-4.64q-1.2,-3.3 -1.2,-9.77l0,-1.24q0,-7.74 3.23,-10.87q2.9,-2.78 9.69,-2.78q6.62,0 9.03,3.27q1.17,1.59 1.55,3.85q0.38,2.25 0.38,4.3q0,3.2 -0.15,4.96q-3.44,0.15 -6.17,0.15l-3.93,0q-6.16,0 -9.48,-0.54q0,5.62 1.42,7.84q1.73,2.71 6.91,2.71t9.91,-2.03zm-18.24,-11.38l15.61,0l0,-2.34q0,-3.83 -1.49,-5.47q-1.66,-1.83 -5.74,-1.83q-4.88,0 -6.67,2.12q-1.71,2.03 -1.71,7.52zm33.79,13.7l-0.51,2.71l-3.44,0l0,-41.55l4.05,-0.39l0,15.67q5.05,-3.27 9.76,-3.27q6.55,0 8.31,4.03q1.09,2.54 1.24,7.13q0.05,2.22 0.05,4.88l0,1.95q0,3.35 -0.43,5.03q-0.43,1.69 -1.08,2.89q-0.66,1.21 -1.81,2.12q-2.49,2 -7.13,2t-9.01,-3.2zm0.1,-20.34l0,17.14q5.17,2.81 8.71,2.81l0.3,0q4.17,0 5.37,-2.32q0.63,-1.17 0.78,-3.05q0.15,-1.88 0.15,-4.52l0,-3.51q0,-5.45 -1.25,-7.33q-1.22,-1.88 -4.64,-1.88l-0.61,0q-3.05,0 -7.08,1.81q-1.05,0.46 -1.73,0.85zm61.32,23.15l-0.58,-3.35q-5.16,3.74 -10.48,3.74q-5.88,0 -7.83,-4.32q-1.13,-2.44 -1.26,-5.17q-0.14,-2.72 -0.14,-4.78t0.04,-4.16q0.04,-2.1 0.31,-3.89q0.26,-1.78 0.84,-3.21q0.57,-1.42 1.65,-2.43q2.22,-2.07 7.33,-2.07q5.12,0 9.24,1.78l0,-13.79l4.06,-0.39l0,28.59q0,8.42 0.46,13.15l-3.64,0.3zm-0.9,-13.65l0.02,-10.86q-4.39,-1.47 -8.49,-1.47q-2.98,0 -3.93,0.49q-0.96,0.49 -1.46,1.27t-0.81,2.15q-0.57,2.56 -0.57,8.44l0,0.54q0,5.49 1.2,7.59q1.29,2.23 4.81,2.23l0.37,0q3.37,0 7.17,-2.15q1.05,-0.59 1.81,-1.17l0,-0.05q-0.12,-2.27 -0.12,-7.01zm36.3,8.52l1.2,3.49q-5.06,2.03 -11.16,2.03q-3.54,0 -6.01,-0.73q-3.93,-1.13 -5.22,-4.64q-1.2,-3.3 -1.2,-9.77l0,-1.24q0,-7.74 3.22,-10.87q2.91,-2.78 9.7,-2.78q6.61,0 9.03,3.27q1.17,1.59 1.55,3.85q0.38,2.25 0.38,4.3q0,3.2 -0.15,4.96q-3.44,0.15 -6.17,0.15l-3.93,0q-6.16,0 -9.48,-0.54q0,5.62 1.42,7.84q1.73,2.71 6.91,2.71q5.17,0 9.91,-2.03zm-18.24,-11.38l15.6,0l0,-2.34q0,-3.83 -1.49,-5.47q-1.66,-1.83 -5.73,-1.83q-4.89,0 -6.67,2.12q-1.71,2.03 -1.71,7.52zm36.5,16.41l-9.96,-29.05l4.37,0l7.62,23.7l0.73,2.42l0.68,-2.42l7.28,-23.7l4.42,0l-9.82,29.05l-5.32,0zm44.16,-5.03l1.2,3.49q-5.06,2.03 -11.16,2.03q-3.54,0 -6.01,-0.73q-3.93,-1.13 -5.22,-4.64q-1.2,-3.3 -1.2,-9.77l0,-1.24q0,-7.74 3.23,-10.87q2.9,-2.78 9.69,-2.78q6.62,0 9.03,3.27q1.17,1.59 1.55,3.85q0.38,2.25 0.38,4.3q0,3.2 -0.15,4.96q-3.44,0.15 -6.17,0.15l-3.93,0q-6.16,0 -9.48,-0.54q0,5.62 1.42,7.84q1.73,2.71 6.91,2.71t9.91,-2.03zm-18.24,-11.38l15.6,0l0,-2.34q0,-3.83 -1.48,-5.47q-1.66,-1.83 -5.74,-1.83q-4.88,0 -6.67,2.12q-1.71,2.03 -1.71,7.52zm30.91,16.41l-0.05,-41.5l4.03,-0.35l0,41.85l-3.98,0zm14.89,-14.45q0,-5.55 0.56,-7.74q0.56,-2.2 1.38,-3.48q0.82,-1.28 2.21,-2.14q2.78,-1.73 8.23,-1.73q7.86,0 10.11,3.88q1.34,2.34 1.53,6.62q0.08,2.02 0.08,4.46q0,2.45 -0.16,4.56q-0.16,2.11 -0.62,3.79q-0.47,1.69 -1.3,2.95q-0.83,1.25 -2.2,2.11q-2.68,1.66 -7.83,1.66q-7.72,0 -10.13,-3.81q-1.49,-2.37 -1.74,-6.64q-0.12,-2.05 -0.12,-4.49zm6.64,10.18q0.88,0.66 2.21,0.99q1.33,0.33 3.64,0.33q2.3,0 3.88,-0.66q1.57,-0.66 2.37,-2.12q0.79,-1.45 1,-3.77q0.21,-2.32 0.21,-5.39q0,-3.08 -0.19,-5.13q-0.18,-2.05 -0.91,-3.39q-1.47,-2.64 -6.52,-2.64q-5.35,0 -6.96,2.64q-0.8,1.34 -1.02,3.41q-0.22,2.08 -0.22,4.52q0,2.44 0.06,4.14q0.06,1.7 0.31,3.05q0.26,1.36 0.76,2.36q0.5,1 1.38,1.66zm31.39,2.54l0,12.84l-4.05,0l0,-40.16l3.3,0l0.46,3q2.86,-2.15 7.45,-3.15q1.66,-0.34 3.61,-0.34t3.46,0.51q1.5,0.51 2.47,1.43q0.98,0.92 1.52,2.18q0.53,1.27 0.8,2.76q0.34,2.05 0.34,6.55l0,0.56q0,5.71 -0.39,7.91t-1.02,3.62q-0.64,1.43 -1.76,2.43q-2.32,2.08 -7.18,2.08q-4.86,0 -9.01,-2.22zm0,-21.19l0,17.84q4.15,1.91 8.72,1.91q2.98,0 4.35,-1.1q1.85,-1.52 2.07,-7.06q0.07,-1.83 0.07,-4.2l0,-0.53q0,-5.62 -0.97,-7.52q-1.1,-2.18 -4.54,-2.18l-0.37,0q-3.59,0 -7.45,1.79q-1.12,0.51 -1.88,1.05zm42.19,-2.81q-3.98,0 -8.69,2.81l0,22.92l-4.05,0l0,-29.05l3.56,0l0.39,3q4.27,-3.49 9.57,-3.49q3.03,0 4.77,0.87q1.75,0.86 2.53,2.84q5.4,-3.71 10.25,-3.71q4.59,0 6.38,2.1q1.71,2.02 1.71,7.2l0,20.24l-4.11,0l0,-19.48q0,-3.52 -0.68,-4.53q-0.68,-1.01 -1.62,-1.37q-0.94,-0.35 -2.2,-0.35q-1.26,0 -2.37,0.23t-2.26,0.62q-2.32,0.81 -4.44,2.05q0.12,1.47 0.12,2.59l0,20.24l-4.1,0l0,-19.48q0,-3.52 -0.68,-4.53q-0.69,-1.01 -1.63,-1.37q-0.94,-0.35 -2.45,-0.35zm58.74,20.7l1.19,3.49q-5.05,2.03 -11.15,2.03q-3.54,0 -6.01,-0.73q-3.93,-1.13 -5.22,-4.64q-1.2,-3.3 -1.2,-9.77l0,-1.24q0,-7.74 3.22,-10.87q2.91,-2.78 9.69,-2.78q6.62,0 9.04,3.27q1.17,1.59 1.55,3.85q0.38,2.25 0.38,4.3q0,3.2 -0.15,4.96q-3.44,0.15 -6.18,0.15l-3.93,0q-6.15,0 -9.47,-0.54q0,5.62 1.42,7.84q1.73,2.71 6.91,2.71q5.17,0 9.91,-2.03zm-18.24,-11.38l15.6,0l0,-2.34q0,-3.83 -1.49,-5.47q-1.66,-1.83 -5.74,-1.83q-4.88,0 -6.66,2.12q-1.71,2.03 -1.71,7.52zm43.72,-9.32q-4.76,0 -9.69,2.81l0,22.92l-4.05,0l0,-29.05l3.56,0l0.39,3q2.66,-2.17 6.62,-3.1q1.61,-0.39 3.78,-0.39q2.18,0 3.84,0.5q1.66,0.5 2.63,1.6q1.79,1.98 1.79,7.2l0,20.24l-4.11,0l0,-19.48q0,-3.52 -0.68,-4.53q-0.68,-1.01 -1.62,-1.37q-0.94,-0.35 -2.46,-0.35zm32.47,21.16l1.39,3.18q-3.98,1.88 -7.35,1.88q-6.1,0 -6.93,-5.23q-0.19,-1.24 -0.19,-3.61l0,-17.31l-3.52,0l0,-3l3.52,-0.39l0.63,-6.64l3.39,0l0,6.64l8.48,0l0,3.39l-8.48,0l0,17.24q0,3 0.44,3.83q0.81,1.51 3.23,1.51q2.41,0 5.39,-1.49z" data-fill-palette-color="secondary" fill="#471aa0" id="svg_28"/>
                   </svg>
                  </g>
                 </svg>
                </g>
               </svg>
              </g>
             </svg>
            </g>
           </svg>
          </g>
         </svg>
        </g>
       </svg>
      </g>
      <g id="svg_42">
       <path d="m125.71,69.25a122.22,122.22 0 0 1 144.1,0l-4.31,0a117.91,117.91 0 0 0 -135.48,0l-4.31,0m0,108.7a122.22,122.22 0 0 0 144.1,0l-4.31,0a117.91,117.91 0 0 1 -135.48,0l-4.31,0" data-fill-palette-color="tertiary" fill="#471aa0" id="svg_43" stroke="transparent"/>
      </g>
     </svg>
    </g>
   </svg>
  </g>
 </g>
</svg>